<svg width="18" height="18" viewBox="0 0 18 18" fill="none" xmlns="http://www.w3.org/2000/svg">
<path d="M1.30546 1.30546C1.82118 0.789731 2.52065 0.5 3.25 0.5H14.75C15.4793 0.5 16.1788 0.789731 16.6945 1.30546C17.2103 1.82118 17.5 2.52065 17.5 3.25V14.75C17.5 15.4793 17.2103 16.1788 16.6945 16.6945C16.1788 17.2103 15.4793 17.5 14.75 17.5H3.25C2.52065 17.5 1.82118 17.2103 1.30546 16.6945C0.789731 16.1788 0.5 15.4793 0.5 14.75V3.25C0.5 2.52065 0.789731 1.82118 1.30546 1.30546Z" stroke="#0059B3"/>
<path d="M14.7613 6.28024L8.00729 13.0272C7.86667 13.1677 7.67604 13.2466 7.47729 13.2466C7.27854 13.2466 7.08792 13.1677 6.94729 13.0272L4.20129 10.2802C4.06881 10.1381 3.99669 9.95002 4.00012 9.75572C4.00355 9.56142 4.08226 9.37603 4.21967 9.23862C4.35708 9.10121 4.54247 9.02249 4.73677 9.01907C4.93107 9.01564 5.11912 9.08776 5.26129 9.22024L7.47829 11.4362L13.7013 5.21924C13.771 5.14964 13.8538 5.09446 13.9448 5.05684C14.0359 5.01922 14.1335 4.99991 14.232 5C14.3305 5.00009 14.4281 5.01959 14.519 5.05738C14.61 5.09517 14.6927 5.15051 14.7623 5.22024C14.8319 5.28997 14.8871 5.37273 14.9247 5.46379C14.9623 5.55485 14.9816 5.65242 14.9815 5.75095C14.9814 5.84947 14.9619 5.94701 14.9242 6.038C14.8864 6.12899 14.831 6.21164 14.7613 6.28124V6.28024Z" fill="white"/>
</svg>
