<svg width="19" height="18" viewBox="0 0 19 18" fill="none" xmlns="http://www.w3.org/2000/svg">
<path d="M6.60119 2.57389V0.644341C6.60119 0.473872 6.66891 0.310385 6.78945 0.189845C6.90999 0.0693055 7.07348 0.00158691 7.24395 0.00158691H12.386C12.5565 0.00158691 12.7199 0.0693055 12.8405 0.189845C12.961 0.310385 13.0287 0.473872 13.0287 0.644341V2.57389H18.1708C18.3412 2.57389 18.5047 2.64161 18.6253 2.76215C18.7458 2.88269 18.8135 3.04617 18.8135 3.21664C18.8135 3.38711 18.7458 3.5506 18.6253 3.67114C18.5047 3.79168 18.3412 3.8594 18.1708 3.8594H1.45916C1.28869 3.8594 1.1252 3.79168 1.00466 3.67114C0.884125 3.5506 0.816406 3.38711 0.816406 3.21664C0.816406 3.04617 0.884125 2.88269 1.00466 2.76215C1.1252 2.64161 1.28869 2.57389 1.45916 2.57389H6.60119ZM7.8867 2.57389H11.7432V1.28838H7.8867V2.57389ZM3.38742 18C3.21695 18 3.05347 17.9323 2.93293 17.8117C2.81239 17.6912 2.74467 17.5277 2.74467 17.3572V3.8594H16.8853V17.3572C16.8853 17.5277 16.8175 17.6912 16.697 17.8117C16.5765 17.9323 16.413 18 16.2425 18H3.38742ZM7.8867 14.1435C8.05717 14.1435 8.22066 14.0757 8.3412 13.9552C8.46174 13.8347 8.52946 13.6712 8.52946 13.5007V7.07317C8.52946 6.9027 8.46174 6.73921 8.3412 6.61867C8.22066 6.49813 8.05717 6.43041 7.8867 6.43041C7.71623 6.43041 7.55275 6.49813 7.43221 6.61867C7.31167 6.73921 7.24395 6.9027 7.24395 7.07317V13.5007C7.24395 13.6712 7.31167 13.8347 7.43221 13.9552C7.55275 14.0757 7.71623 14.1435 7.8867 14.1435ZM11.7432 14.1435C11.9137 14.1435 12.0772 14.0757 12.1977 13.9552C12.3183 13.8347 12.386 13.6712 12.386 13.5007V7.07317C12.386 6.9027 12.3183 6.73921 12.1977 6.61867C12.0772 6.49813 11.9137 6.43041 11.7432 6.43041C11.5728 6.43041 11.4093 6.49813 11.2887 6.61867C11.1682 6.73921 11.1005 6.9027 11.1005 7.07317V13.5007C11.1005 13.6712 11.1682 13.8347 11.2887 13.9552C11.4093 14.0757 11.5728 14.1435 11.7432 14.1435Z" fill="#C01414"/>
</svg>
