<svg width="19" height="18" viewBox="0 0 19 18" fill="none" xmlns="http://www.w3.org/2000/svg">
<g clip-path="url(#clip0_20_89)">
<path d="M2.29588 11.5997L1.34604 15.6991C1.31327 15.8489 1.31439 16.0042 1.34932 16.1536C1.38425 16.3029 1.45211 16.4426 1.54793 16.5624C1.64376 16.6822 1.76513 16.779 1.90318 16.8459C2.04124 16.9128 2.19248 16.9479 2.34588 16.9489C2.41735 16.9561 2.48937 16.9561 2.56084 16.9489L6.68518 15.999L14.6039 8.11028L10.1846 3.70099L2.29588 11.5997Z" fill="#2FB51A"/>
<path d="M17.0935 4.16093L14.1439 1.2114C13.95 1.01846 13.6876 0.910156 13.4141 0.910156C13.1405 0.910156 12.8781 1.01846 12.6842 1.2114L11.0444 2.85114L15.4587 7.26543L17.0985 5.62569C17.1944 5.52925 17.2704 5.41483 17.3221 5.28898C17.3738 5.16313 17.4002 5.02833 17.3997 4.89228C17.3992 4.75623 17.372 4.6216 17.3194 4.49611C17.2669 4.37062 17.1901 4.25672 17.0935 4.16093V4.16093Z" fill="#2FB51A"/>
</g>
<defs>
<clipPath id="clip0_20_89">
<rect width="17.9971" height="17.9971" fill="white" transform="translate(0.186523 0.00158691)"/>
</clipPath>
</defs>
</svg>
