<svg width="704" height="896" viewBox="0 0 704 896" fill="none" xmlns="http://www.w3.org/2000/svg">
<path d="M694.6 224.7C700.6 230.7 704 238.8 704 247.3V864C704 881.7 689.7 896 672 896H32C14.3 896 0 881.7 0 864V32C0 14.3 14.3 0 32 0H456.7C465.2 0 473.4 3.4 479.4 9.4L694.6 224.7V224.7ZM630.2 262L442 73.8V262H630.2ZM160 418C157.878 418 155.843 418.843 154.343 420.343C152.843 421.843 152 423.878 152 426V474C152 476.122 152.843 478.157 154.343 479.657C155.843 481.157 157.878 482 160 482H544C546.122 482 548.157 481.157 549.657 479.657C551.157 478.157 552 476.122 552 474V426C552 423.878 551.157 421.843 549.657 420.343C548.157 418.843 546.122 418 544 418H160ZM160 554C157.878 554 155.843 554.843 154.343 556.343C152.843 557.843 152 559.878 152 562V610C152 612.122 152.843 614.157 154.343 615.657C155.843 617.157 157.878 618 160 618H344C346.122 618 348.157 617.157 349.657 615.657C351.157 614.157 352 612.122 352 610V562C352 559.878 351.157 557.843 349.657 556.343C348.157 554.843 346.122 554 344 554H160Z" fill="#9F9F9F"/>
</svg>
