<svg width="32" height="32" viewBox="0 0 32 32" fill="none" xmlns="http://www.w3.org/2000/svg">
<path d="M5.33333 14.6667H13.3333C13.687 14.6667 14.0261 14.5262 14.2761 14.2761C14.5262 14.0261 14.6667 13.687 14.6667 13.3333V5.33333C14.6667 4.97971 14.5262 4.64057 14.2761 4.39052C14.0261 4.14048 13.687 4 13.3333 4H5.33333C4.97971 4 4.64057 4.14048 4.39052 4.39052C4.14048 4.64057 4 4.97971 4 5.33333V13.3333C4 13.687 4.14048 14.0261 4.39052 14.2761C4.64057 14.5262 4.97971 14.6667 5.33333 14.6667ZM18.6667 14.6667H26.6667C27.0203 14.6667 27.3594 14.5262 27.6095 14.2761C27.8595 14.0261 28 13.687 28 13.3333V5.33333C28 4.97971 27.8595 4.64057 27.6095 4.39052C27.3594 4.14048 27.0203 4 26.6667 4H18.6667C18.313 4 17.9739 4.14048 17.7239 4.39052C17.4738 4.64057 17.3333 4.97971 17.3333 5.33333V13.3333C17.3333 13.687 17.4738 14.0261 17.7239 14.2761C17.9739 14.5262 18.313 14.6667 18.6667 14.6667ZM5.33333 28H13.3333C13.687 28 14.0261 27.8595 14.2761 27.6095C14.5262 27.3594 14.6667 27.0203 14.6667 26.6667V18.6667C14.6667 18.313 14.5262 17.9739 14.2761 17.7239C14.0261 17.4738 13.687 17.3333 13.3333 17.3333H5.33333C4.97971 17.3333 4.64057 17.4738 4.39052 17.7239C4.14048 17.9739 4 18.313 4 18.6667V26.6667C4 27.0203 4.14048 27.3594 4.39052 27.6095C4.64057 27.8595 4.97971 28 5.33333 28ZM18.6667 28H26.6667C27.0203 28 27.3594 27.8595 27.6095 27.6095C27.8595 27.3594 28 27.0203 28 26.6667V18.6667C28 18.313 27.8595 17.9739 27.6095 17.7239C27.3594 17.4738 27.0203 17.3333 26.6667 17.3333H18.6667C18.313 17.3333 17.9739 17.4738 17.7239 17.7239C17.4738 17.9739 17.3333 18.313 17.3333 18.6667V26.6667C17.3333 27.0203 17.4738 27.3594 17.7239 27.6095C17.9739 27.8595 18.313 28 18.6667 28Z" fill="#007FFF"/>
</svg>
