<svg width="11" height="10" viewBox="0 0 11 10" fill="none" xmlns="http://www.w3.org/2000/svg">
<path d="M5.64497 3.64497L3.64497 5.64497C3.59811 5.69145 3.56091 5.74675 3.53552 5.80768C3.51014 5.86861 3.49707 5.93396 3.49707 5.99997C3.49707 6.06598 3.51014 6.13133 3.53552 6.19226C3.56091 6.25319 3.59811 6.30849 3.64497 6.35497C3.69145 6.40183 3.74675 6.43903 3.80768 6.46442C3.86861 6.4898 3.93396 6.50287 3.99997 6.50287C4.06598 6.50287 4.13133 6.4898 4.19226 6.46442C4.25319 6.43903 4.30849 6.40183 4.35497 6.35497L6.35497 4.35497C6.44912 4.26082 6.50202 4.13312 6.50202 3.99997C6.50202 3.86682 6.44912 3.73912 6.35497 3.64497C6.26082 3.55082 6.13312 3.49792 5.99997 3.49792C5.86682 3.49792 5.73912 3.55082 5.64497 3.64497V3.64497Z" fill="#175594"/>
<path d="M5.13977 7.70002L4.49977 8.33502C4.14048 8.70524 3.65749 8.93025 3.14292 8.96714C2.62834 9.00402 2.11819 8.8502 1.70977 8.53502C1.49391 8.35714 1.31775 8.13596 1.19269 7.88577C1.06763 7.63557 0.996436 7.36193 0.983714 7.0825C0.970991 6.80308 1.01702 6.5241 1.11883 6.26357C1.22064 6.00305 1.37596 5.76678 1.57477 5.57002L2.28477 4.85502C2.33164 4.80854 2.36883 4.75324 2.39422 4.69231C2.4196 4.63138 2.43267 4.56602 2.43267 4.50002C2.43267 4.43401 2.4196 4.36866 2.39422 4.30773C2.36883 4.2468 2.33164 4.1915 2.28477 4.14502C2.23829 4.09815 2.18299 4.06096 2.12206 4.03557C2.06113 4.01019 1.99578 3.99712 1.92977 3.99712C1.86377 3.99712 1.79841 4.01019 1.73748 4.03557C1.67655 4.06096 1.62125 4.09815 1.57477 4.14502L0.939771 4.78502C0.40485 5.30302 0.0760642 5.99753 0.0144547 6.7396C-0.0471548 7.48167 0.162598 8.22089 0.604771 8.82002C0.867211 9.16048 1.19909 9.44121 1.57837 9.64354C1.95764 9.84588 2.37563 9.9652 2.80456 9.99357C3.2335 10.0219 3.66356 9.95873 4.06618 9.80812C4.4688 9.6575 4.83477 9.42294 5.13977 9.12002L5.84977 8.41002C5.94392 8.31587 5.99682 8.18817 5.99682 8.05502C5.99682 7.92187 5.94392 7.79417 5.84977 7.70002C5.75562 7.60587 5.62792 7.55297 5.49477 7.55297C5.36162 7.55297 5.23392 7.60587 5.13977 7.70002V7.70002ZM8.82977 0.610019C8.22652 0.163251 7.48126 -0.0486376 6.73319 0.0139311C5.98513 0.0764998 5.28542 0.409247 4.76477 0.950019L4.22477 1.50002C4.16305 1.54489 4.11144 1.60222 4.07328 1.6683C4.03512 1.73438 4.01126 1.80773 4.00325 1.88362C3.99524 1.9595 4.00325 2.03622 4.02677 2.10881C4.05028 2.1814 4.08878 2.24825 4.13977 2.30502C4.18625 2.35188 4.24155 2.38908 4.30248 2.41446C4.36341 2.43985 4.42877 2.45292 4.49477 2.45292C4.56078 2.45292 4.62613 2.43985 4.68706 2.41446C4.74799 2.38908 4.80329 2.35188 4.84977 2.30502L5.49977 1.65002C5.85707 1.27818 6.33949 1.05194 6.85385 1.015C7.36821 0.978061 7.87801 1.13305 8.28477 1.45002C8.50224 1.62792 8.67979 1.84965 8.80585 2.10075C8.93191 2.35186 9.00364 2.6267 9.01638 2.90738C9.02911 3.18806 8.98257 3.46828 8.87977 3.72977C8.77698 3.99126 8.62024 4.22815 8.41977 4.42502L7.70977 5.14002C7.66291 5.1865 7.62571 5.2418 7.60033 5.30273C7.57494 5.36366 7.56187 5.42901 7.56187 5.49502C7.56187 5.56102 7.57494 5.62638 7.60033 5.68731C7.62571 5.74824 7.66291 5.80354 7.70977 5.85002C7.75625 5.89688 7.81155 5.93408 7.87248 5.95946C7.93341 5.98485 7.99876 5.99792 8.06477 5.99792C8.13078 5.99792 8.19613 5.98485 8.25706 5.95946C8.31799 5.93408 8.37329 5.89688 8.41977 5.85002L9.12977 5.14002C9.43185 4.83507 9.66569 4.46942 9.8158 4.06729C9.96591 3.66516 10.0289 3.23572 10.0005 2.80742C9.97214 2.37912 9.8531 1.96174 9.65127 1.58291C9.44944 1.20409 9.16942 0.872468 8.82977 0.610019V0.610019Z" fill="#175594"/>
</svg>
