<svg width="32" height="32" viewBox="0 0 32 32" fill="none" xmlns="http://www.w3.org/2000/svg">
<path d="M5.33333 10.6667C6.06971 10.6667 6.66667 10.0697 6.66667 9.33333C6.66667 8.59695 6.06971 8 5.33333 8C4.59695 8 4 8.59695 4 9.33333C4 10.0697 4.59695 10.6667 5.33333 10.6667Z" fill="#007FFF"/>
<path d="M5.33333 17.3333C6.06971 17.3333 6.66667 16.7364 6.66667 16C6.66667 15.2636 6.06971 14.6667 5.33333 14.6667C4.59695 14.6667 4 15.2636 4 16C4 16.7364 4.59695 17.3333 5.33333 17.3333Z" fill="#007FFF"/>
<path d="M5.33333 24C6.06971 24 6.66667 23.4031 6.66667 22.6667C6.66667 21.9303 6.06971 21.3333 5.33333 21.3333C4.59695 21.3333 4 21.9303 4 22.6667C4 23.4031 4.59695 24 5.33333 24Z" fill="#007FFF"/>
<path d="M26.7468 14.6667H10.5868C9.89463 14.6667 9.3335 15.2278 9.3335 15.92V16.08C9.3335 16.7722 9.89463 17.3333 10.5868 17.3333H26.7468C27.439 17.3333 28.0002 16.7722 28.0002 16.08V15.92C28.0002 15.2278 27.439 14.6667 26.7468 14.6667Z" fill="#007FFF"/>
<path d="M26.7468 21.3333H10.5868C9.89463 21.3333 9.3335 21.8945 9.3335 22.5867V22.7467C9.3335 23.4389 9.89463 24 10.5868 24H26.7468C27.439 24 28.0002 23.4389 28.0002 22.7467V22.5867C28.0002 21.8945 27.439 21.3333 26.7468 21.3333Z" fill="#007FFF"/>
<path d="M26.7468 8H10.5868C9.89463 8 9.3335 8.56114 9.3335 9.25333V9.41333C9.3335 10.1055 9.89463 10.6667 10.5868 10.6667H26.7468C27.439 10.6667 28.0002 10.1055 28.0002 9.41333V9.25333C28.0002 8.56114 27.439 8 26.7468 8Z" fill="#007FFF"/>
</svg>
