<svg width="18" height="18" viewBox="0 0 18 18" fill="none" xmlns="http://www.w3.org/2000/svg">
<path d="M17.9958 16.0557C17.9958 16.5701 17.7914 17.0634 17.4277 17.4272C17.064 17.7909 16.5707 17.9952 16.0563 17.9952H1.9395C1.42514 17.9951 0.931859 17.7908 0.568149 17.4271C0.204438 17.0634 7.45726e-05 16.5701 0 16.0557L0 1.9395C0.000149106 1.42516 0.204537 0.931925 0.568231 0.568231C0.931926 0.204537 1.42516 0.000149106 1.9395 0H16.056C16.5704 7.45726e-05 17.0636 0.204438 17.4274 0.568149C17.7911 0.931859 17.9954 1.42514 17.9955 1.9395V16.0557H17.9958Z" fill="#C01414"/>
<path d="M12.9766 2.6401C11.6508 3.96647 10.3245 5.29285 8.99977 6.61979C7.67339 5.29397 6.34702 3.96732 5.02008 2.6401C3.48615 1.10588 1.10733 3.48385 2.64155 5.01919C3.96736 6.34444 5.2943 7.67138 6.61843 8.99607C5.29318 10.3219 3.96596 11.6488 2.64155 12.9729C1.10789 14.5072 3.4853 16.8851 5.02008 15.3523C6.3459 14.0257 7.67227 12.6993 8.99977 11.3726C10.3261 12.699 11.6514 14.0248 12.9766 15.3523C14.5109 16.8857 16.8888 14.5058 15.356 12.9735C14.0294 11.6471 12.703 10.3213 11.3763 8.99382L15.356 5.01413C16.8894 3.48047 14.5123 1.10138 12.9766 2.63532" fill="white"/>
</svg>
