<svg width="131" height="131" viewBox="0 0 131 131" fill="none" xmlns="http://www.w3.org/2000/svg">
<mask id="mask0_29_87" style="mask-type:alpha" maskUnits="userSpaceOnUse" x="0" y="0" width="131" height="131">
<rect y="113.137" width="160" height="25" transform="rotate(-45 0 113.137)" fill="#2FB51A"/>
</mask>
<g mask="url(#mask0_29_87)">
<rect x="43" y="34" width="110" height="106" fill="#2FB51A"/>
</g>
<path d="M114.5 34V40H108.5L114.5 34Z" fill="#235F19"/>
<path d="M49 99.5V105.5H43L49 99.5Z" fill="#235F19"/>
<path d="M60.0859 73.9514L56.734 67.7573L58.1178 66.3734L62.0497 74.5065L61.1382 75.4181L60.0859 73.9514ZM54.0036 70.4876L60.1936 73.8436L61.6686 74.8877L60.7488 75.8075L52.6281 71.8632L54.0036 70.4876ZM66.2816 68.2528L64.2846 66.2558C64.141 66.1121 63.9946 66.0127 63.8454 65.9575C63.6935 65.8995 63.5388 65.8912 63.3814 65.9326C63.2267 65.9713 63.072 66.0679 62.9173 66.2226C62.7847 66.3552 62.6936 66.4933 62.6439 66.6369C62.5914 66.7778 62.5817 66.9173 62.6149 67.0554C62.6453 67.1908 62.7171 67.315 62.8303 67.4283L61.6371 68.6215C61.4465 68.431 61.3098 68.2058 61.2269 67.9462C61.144 67.6866 61.1219 67.4076 61.1606 67.1093C61.1965 66.8082 61.2932 66.5044 61.4506 66.1978C61.6108 65.8884 61.836 65.5887 62.126 65.2987C62.474 64.9507 62.8414 64.6993 63.2281 64.5446C63.6148 64.3899 64.0015 64.3513 64.3882 64.4286C64.7776 64.5032 65.1464 64.7145 65.4944 65.0625L67.4127 66.9808C67.6585 67.2267 67.8754 67.4131 68.0632 67.5402C68.2483 67.6645 68.4278 67.7556 68.6018 67.8136L68.6722 67.884L67.4666 69.0897C67.287 69.0262 67.0909 68.9185 66.8782 68.7666C66.6655 68.6091 66.4667 68.4379 66.2816 68.2528ZM64.7196 66.3759L65.4033 67.043L64.7362 67.71C64.5788 67.8675 64.46 68.0222 64.3799 68.1741C64.2998 68.326 64.2556 68.4724 64.2473 68.6133C64.2362 68.7514 64.2556 68.8812 64.3053 69.0027C64.3578 69.1215 64.4351 69.232 64.5373 69.3342C64.6395 69.4364 64.7555 69.5054 64.8854 69.5413C65.0124 69.5745 65.1436 69.5703 65.279 69.5289C65.4115 69.4847 65.5372 69.4032 65.656 69.2845C65.8355 69.1049 65.9557 68.9129 66.0164 68.7085C66.0772 68.5041 66.091 68.3136 66.0579 68.1368C66.0275 67.9572 65.9667 67.8191 65.8756 67.7225L66.6959 67.9131C66.765 68.0705 66.8216 68.2487 66.8658 68.4475C66.9128 68.6436 66.9321 68.8536 66.9238 69.0773C66.9128 69.2983 66.8603 69.5248 66.7664 69.7568C66.6697 69.986 66.5095 70.2125 66.2858 70.4363C66.0013 70.7208 65.6864 70.9224 65.3411 71.0412C64.9958 71.1544 64.6547 71.1779 64.3177 71.1116C63.9808 71.0398 63.6824 70.8741 63.4228 70.6144C63.188 70.3796 63.0237 70.1269 62.9298 69.8562C62.8358 69.5855 62.8124 69.3024 62.8593 69.0069C62.9063 68.7058 63.0278 68.3937 63.2239 68.0705C63.4173 67.7446 63.6852 67.4103 64.0277 67.0678L64.7196 66.3759ZM64.7337 59.0947L71.0977 65.4586L69.9003 66.656L63.5363 60.292L64.7337 59.0947ZM69.2846 58.3058L73.7676 62.7887L72.5702 63.9861L68.0872 59.5032L69.2846 58.3058ZM66.8443 58.4094C66.6702 58.2354 66.5874 58.031 66.5957 57.7962C66.604 57.5614 66.7103 57.3418 66.9147 57.1374C67.1163 56.9358 67.3345 56.8308 67.5693 56.8225C67.8069 56.8115 68.0126 56.893 68.1867 57.067C68.3607 57.241 68.4422 57.4468 68.4311 57.6843C68.4228 57.9191 68.3179 58.1373 68.1162 58.3389C67.9118 58.5433 67.6922 58.6497 67.4575 58.658C67.2227 58.6662 67.0183 58.5834 66.8443 58.4094ZM76.8476 57.7531L71.4614 52.3669L72.663 51.1654L79.0269 57.5294L77.9456 58.6107L76.8476 57.7531ZM72.8038 59.3772L72.7168 59.2902C72.3743 58.9477 72.1023 58.5983 71.9006 58.242C71.6962 57.8829 71.5678 57.528 71.5153 57.1772C71.4628 56.8264 71.4904 56.4866 71.5982 56.158C71.7059 55.8293 71.8992 55.5254 72.1782 55.2464C72.4406 54.984 72.7251 54.81 73.0317 54.7244C73.3411 54.636 73.667 54.625 74.0095 54.6913C74.352 54.752 74.7042 54.8777 75.066 55.0683C75.4251 55.2561 75.7869 55.4937 76.1515 55.7809L76.3421 55.9715C76.6156 56.3223 76.8435 56.6745 77.0258 57.028C77.2081 57.3816 77.3296 57.7296 77.3904 58.0721C77.4511 58.4091 77.4373 58.7323 77.3489 59.0416C77.2605 59.351 77.0838 59.6382 76.8186 59.9034C76.5396 60.1824 76.2344 60.3744 75.903 60.4793C75.5743 60.5815 75.2331 60.605 74.8796 60.5498C74.5288 60.4917 74.1766 60.3633 73.8231 60.1644C73.4695 59.9656 73.1298 59.7032 72.8038 59.3772ZM73.9101 58.097L73.9971 58.184C74.1821 58.369 74.3686 58.5279 74.5564 58.6604C74.747 58.7903 74.9376 58.8842 75.1282 58.9422C75.3188 58.9947 75.5024 59.0016 75.6792 58.9629C75.856 58.9187 76.0231 58.8179 76.1806 58.6604C76.385 58.4561 76.5079 58.242 76.5493 58.0183C76.588 57.7918 76.5603 57.5625 76.4664 57.3305C76.3753 57.0957 76.2289 56.8664 76.0273 56.6427L75.4845 56.0999C75.3022 55.9342 75.1213 55.803 74.9417 55.7063C74.7622 55.6041 74.584 55.542 74.4073 55.5199C74.2332 55.495 74.062 55.5116 73.8935 55.5696C73.7278 55.6249 73.569 55.7284 73.417 55.8804C73.2624 56.035 73.1657 56.2035 73.127 56.3858C73.0856 56.5654 73.0911 56.7504 73.1436 56.941C73.1988 57.1288 73.2927 57.3222 73.4253 57.5211C73.5579 57.7144 73.7195 57.9064 73.9101 58.097ZM82.5296 54.1924C82.1816 54.5404 81.8142 54.7973 81.4275 54.9631C81.038 55.126 80.6472 55.2047 80.255 55.1992C79.8655 55.1909 79.4885 55.1067 79.1239 54.9465C78.7565 54.7835 78.4237 54.5529 78.1254 54.2546L77.9596 54.0888C77.6199 53.7491 77.3575 53.39 77.1724 53.0116C76.9874 52.6332 76.881 52.2506 76.8534 51.8639C76.8285 51.4745 76.8907 51.0947 77.0399 50.7246C77.1862 50.3517 77.4224 50.0023 77.7483 49.6763C78.066 49.3587 78.4002 49.1294 78.751 48.9886C79.1018 48.8477 79.4567 48.7911 79.8158 48.8187C80.1776 48.8435 80.5367 48.9485 80.893 49.1336C81.2466 49.3159 81.5877 49.5714 81.9164 49.9001L82.4136 50.3972L78.8504 53.9604L78.0549 53.1649L80.4456 50.7743L80.3544 50.6831C80.1887 50.5174 80.0105 50.4 79.8199 50.331C79.6294 50.2564 79.436 50.2398 79.2399 50.2812C79.0438 50.3227 78.8532 50.4359 78.6681 50.621C78.5107 50.7784 78.4099 50.9483 78.3657 51.1306C78.3215 51.3129 78.3256 51.5021 78.3781 51.6982C78.4334 51.8916 78.5273 52.0904 78.6598 52.2948C78.7924 52.4937 78.9582 52.6926 79.157 52.8915L79.3228 53.0572C79.5023 53.2367 79.6929 53.3776 79.8945 53.4798C80.0989 53.5792 80.3033 53.6372 80.5077 53.6538C80.7149 53.6676 80.9165 53.6372 81.1126 53.5627C81.3115 53.4853 81.4979 53.3596 81.672 53.1856C81.8874 52.9702 82.0462 52.7285 82.1484 52.4606C82.2506 52.1871 82.2838 51.8971 82.2479 51.5905L83.4577 51.6402C83.4991 51.8695 83.5005 52.1277 83.4618 52.415C83.4259 52.6995 83.3348 52.995 83.1884 53.3016C83.0392 53.6055 82.8196 53.9024 82.5296 54.1924ZM76.5137 49.8586L76.0496 47.7705L77.3465 46.4736L77.4832 48.8891L76.5137 49.8586Z" fill="white"/>
</svg>
