<svg width="131" height="131" viewBox="0 0 131 131" fill="none" xmlns="http://www.w3.org/2000/svg">
<mask id="mask0_29_78" style="mask-type:alpha" maskUnits="userSpaceOnUse" x="0" y="0" width="131" height="131">
<rect y="113.137" width="160" height="25" transform="rotate(-45 0 113.137)" fill="#2FB51A"/>
</mask>
<g mask="url(#mask0_29_78)">
<rect x="43" y="34" width="110" height="106" fill="#A4A69E"/>
</g>
<path d="M114.5 34V40H108.5L114.5 34Z" fill="#4B4B48"/>
<path d="M49 99.5V105.5H43L49 99.5Z" fill="#4B4B48"/>
<path d="M55.5412 79.9853L56.3492 80.7932L53.6734 83.469L52.8654 82.6611L55.5412 79.9853ZM48.9846 78.1035L54.0117 83.1306L52.9759 84.1664L47.9488 79.1393L48.9846 78.1035ZM53.0208 78.1622L53.808 78.9495L51.4809 81.2766L50.6937 80.4893L53.0208 78.1622ZM51.3186 75.7695L52.13 76.5809L49.4576 79.2533L48.6463 78.4419L51.3186 75.7695ZM55.2802 75.9857L58.2184 78.9239L57.2241 79.9183L53.4883 76.1825L54.4205 75.2503L55.2802 75.9857ZM56.0743 77.0698L55.805 77.3391C55.5288 77.0629 55.3159 76.7786 55.1663 76.4863C55.0144 76.1917 54.9246 75.9017 54.897 75.6162C54.8671 75.3285 54.8993 75.0546 54.9937 74.7945C55.088 74.5298 55.2457 74.287 55.4667 74.066C55.6416 73.8911 55.8269 73.7564 56.0226 73.662C56.2182 73.5677 56.4231 73.5239 56.6371 73.5308C56.8535 73.5354 57.0802 73.601 57.3173 73.7276C57.5567 73.8519 57.8076 74.0453 58.07 74.3077L60.4523 76.69L59.4511 77.6913L57.0653 75.3055C56.8995 75.1398 56.7476 75.0339 56.6095 74.9879C56.4714 74.9418 56.339 74.9453 56.2124 74.9982C56.0859 75.0466 55.9581 75.1352 55.8292 75.2641C55.6957 75.3976 55.6059 75.5403 55.5599 75.6922C55.5162 75.8418 55.5093 75.996 55.5392 76.1549C55.5691 76.3091 55.6301 76.4644 55.7222 76.621C55.8142 76.7775 55.9316 76.9271 56.0743 77.0698ZM61.6152 67.1924L64.4153 72.727L63.3139 73.8285L60.1547 66.9335L60.8556 66.2326L61.6152 67.1924ZM66.9185 70.2239L61.3804 67.4272L60.4102 66.678L61.118 65.9702L68.0233 69.119L66.9185 70.2239ZM64.985 68.4147L65.7964 69.226L63.1413 71.8811L62.3299 71.0698L64.985 68.4147ZM66.8128 62.8579L67.5172 63.5623L65.342 65.7375L64.6377 65.0331L66.8128 62.8579ZM64.2544 63.5726L65.2488 62.5783L68.7809 66.1104C68.889 66.2185 68.9857 66.2876 69.0709 66.3175C69.1583 66.3451 69.2424 66.3417 69.3229 66.3072C69.4012 66.2703 69.4841 66.2082 69.5715 66.1207C69.6337 66.0586 69.6866 66.001 69.7303 65.9481C69.7741 65.8905 69.8098 65.841 69.8374 65.7996L70.5728 66.5281C70.5152 66.6409 70.445 66.7549 70.3622 66.8699C70.2793 66.985 70.178 67.1024 70.0583 67.2221C69.8397 67.4408 69.613 67.5962 69.3782 67.6882C69.1434 67.7757 68.9017 67.7826 68.6531 67.7089C68.4045 67.6353 68.149 67.4673 67.8866 67.2048L64.2544 63.5726ZM69.5625 60.1082L70.2669 60.8126L68.0917 62.9878L67.3874 62.2834L69.5625 60.1082ZM67.0041 60.8229L67.9985 59.8286L71.5306 63.3606C71.6387 63.4688 71.7354 63.5379 71.8206 63.5678C71.9081 63.5954 71.9921 63.592 72.0726 63.5574C72.1509 63.5206 72.2338 63.4585 72.3212 63.371C72.3834 63.3089 72.4363 63.2513 72.48 63.1984C72.5238 63.1408 72.5595 63.0913 72.5871 63.0499L73.3225 63.7784C73.265 63.8912 73.1948 64.0051 73.1119 64.1202C73.029 64.2353 72.9277 64.3527 72.8081 64.4724C72.5894 64.6911 72.3627 64.8464 72.1279 64.9385C71.8931 65.026 71.6514 65.0329 71.4028 64.9592C71.1542 64.8856 70.8987 64.7175 70.6363 64.4551L67.0041 60.8229ZM76.0066 61.2739C75.7166 61.5639 75.4104 61.7779 75.0882 61.916C74.7636 62.0519 74.4379 62.1175 74.1111 62.1129C73.7865 62.1059 73.4723 62.0357 73.1685 61.9022C72.8624 61.7664 72.585 61.5742 72.3364 61.3256L72.1983 61.1875C71.9152 60.9044 71.6965 60.6052 71.5423 60.2898C71.3881 59.9745 71.2995 59.6557 71.2764 59.3335C71.2557 59.0089 71.3075 58.6924 71.4318 58.384C71.5538 58.0732 71.7506 57.7821 72.0222 57.5104C72.2869 57.2457 72.5654 57.0547 72.8578 56.9373C73.1501 56.8199 73.4459 56.7727 73.7451 56.7957C74.0466 56.8165 74.3459 56.9039 74.6428 57.0581C74.9374 57.2101 75.2217 57.423 75.4956 57.6969L75.9099 58.1112L72.9406 61.0805L72.2777 60.4176L74.2699 58.4254L74.194 58.3494C74.0558 58.2113 73.9074 58.1135 73.7486 58.056C73.5897 57.9938 73.4286 57.98 73.2652 58.0145C73.1018 58.0491 72.9429 58.1434 72.7887 58.2977C72.6575 58.4289 72.5735 58.5704 72.5367 58.7223C72.4998 58.8742 72.5033 59.0319 72.547 59.1953C72.5931 59.3565 72.6713 59.5222 72.7818 59.6925C72.8923 59.8583 73.0304 60.024 73.1961 60.1897L73.3342 60.3278C73.4839 60.4774 73.6427 60.5948 73.8107 60.68C73.981 60.7629 74.1514 60.8112 74.3217 60.825C74.4943 60.8365 74.6624 60.8112 74.8258 60.749C74.9915 60.6846 75.1469 60.5799 75.2919 60.4349C75.4714 60.2553 75.6038 60.0539 75.689 59.8306C75.7741 59.6028 75.8017 59.3611 75.7718 59.1056L76.78 59.147C76.8145 59.3381 76.8157 59.5533 76.7835 59.7927C76.7535 60.0297 76.6776 60.276 76.5556 60.5315C76.4313 60.7847 76.2483 61.0322 76.0066 61.2739ZM76.4258 54.8401L79.364 57.7784L78.3696 58.7727L74.6338 55.037L75.566 54.1047L76.4258 54.8401ZM77.2199 55.9243L76.9506 56.1936C76.6744 55.9174 76.4614 55.6331 76.3118 55.3408C76.1599 55.0462 76.0701 54.7561 76.0425 54.4707C76.0126 54.183 76.0448 53.9091 76.1392 53.649C76.2336 53.3843 76.3912 53.1414 76.6122 52.9205C76.7871 52.7455 76.9724 52.6109 77.1681 52.5165C77.3637 52.4221 77.5686 52.3784 77.7827 52.3853C77.999 52.3899 78.2258 52.4555 78.4628 52.5821C78.7022 52.7064 78.9531 52.8997 79.2155 53.1622L81.5979 55.5445L80.5966 56.5458L78.2108 54.16C78.0451 53.9942 77.8931 53.8884 77.755 53.8423C77.6169 53.7963 77.4846 53.7997 77.358 53.8527C77.2314 53.901 77.1036 53.9896 76.9747 54.1185C76.8412 54.252 76.7515 54.3948 76.7054 54.5467C76.6617 54.6963 76.6548 54.8505 76.6847 55.0093C76.7146 55.1635 76.7756 55.3189 76.8677 55.4754C76.9598 55.632 77.0772 55.7816 77.2199 55.9243ZM84.099 51.4137L79.6105 46.9252L80.6118 45.924L85.9151 51.2273L85.0139 52.1284L84.099 51.4137ZM80.7292 52.7672L80.6567 52.6947C80.3712 52.4092 80.1445 52.1181 79.9765 51.8211C79.8062 51.5219 79.6991 51.2261 79.6554 50.9338C79.6117 50.6415 79.6347 50.3584 79.7244 50.0844C79.8142 49.8105 79.9753 49.5573 80.2078 49.3249C80.4265 49.1062 80.6636 48.9612 80.9191 48.8898C81.1769 48.8162 81.4485 48.807 81.7339 48.8622C82.0193 48.9128 82.3128 49.0176 82.6143 49.1764C82.9136 49.3329 83.2151 49.5309 83.5189 49.7702L83.6777 49.9291C83.9056 50.2214 84.0955 50.5149 84.2474 50.8095C84.3994 51.1041 84.5006 51.3942 84.5513 51.6796C84.6019 51.9604 84.5904 52.2297 84.5167 52.4875C84.4431 52.7453 84.2958 52.9847 84.0748 53.2057C83.8423 53.4381 83.588 53.5981 83.3118 53.6856C83.0379 53.7707 82.7536 53.7903 82.459 53.7443C82.1666 53.6959 81.8732 53.5889 81.5785 53.4232C81.2839 53.2574 81.0008 53.0388 80.7292 52.7672ZM81.651 51.7003L81.7235 51.7728C81.8778 51.927 82.0331 52.0594 82.1896 52.1699C82.3485 52.278 82.5073 52.3563 82.6661 52.4046C82.8249 52.4484 82.978 52.4541 83.1253 52.4219C83.2726 52.3851 83.4119 52.3011 83.5431 52.1699C83.7134 51.9995 83.8159 51.8211 83.8504 51.6347C83.8826 51.4459 83.8596 51.2549 83.7813 51.0615C83.7054 50.8659 83.5834 50.6748 83.4153 50.4884L82.963 50.0361C82.8111 49.898 82.6604 49.7887 82.5107 49.7081C82.3611 49.6229 82.2127 49.5711 82.0653 49.5527C81.9203 49.532 81.7776 49.5458 81.6372 49.5942C81.4991 49.6402 81.3668 49.7265 81.2402 49.8531C81.1113 49.982 81.0307 50.1224 80.9985 50.2743C80.9639 50.424 80.9686 50.5782 81.0123 50.737C81.0583 50.8935 81.1366 51.0546 81.2471 51.2204C81.3576 51.3815 81.4922 51.5415 81.651 51.7003ZM88.2194 47.2381L86.5552 45.5739C86.4355 45.4542 86.3135 45.3713 86.1892 45.3253C86.0626 45.2769 85.9337 45.27 85.8025 45.3046C85.6736 45.3368 85.5447 45.4174 85.4158 45.5463C85.3053 45.6567 85.2294 45.7718 85.1879 45.8915C85.1442 46.0089 85.1362 46.1251 85.1638 46.2402C85.1891 46.353 85.2489 46.4566 85.3433 46.551L84.3489 47.5453C84.1901 47.3865 84.0762 47.1989 84.0071 46.9826C83.9381 46.7662 83.9197 46.5337 83.9519 46.2851C83.9818 46.0342 84.0624 45.781 84.1936 45.5255C84.3271 45.2677 84.5147 45.018 84.7564 44.7763C85.0464 44.4863 85.3525 44.2768 85.6748 44.1479C85.997 44.019 86.3193 43.9868 86.6415 44.0512C86.9661 44.1134 87.2734 44.2895 87.5634 44.5795L89.162 46.1781C89.3668 46.3829 89.5475 46.5383 89.704 46.6442C89.8583 46.7478 90.0079 46.8237 90.1529 46.8721L90.2116 46.9308L89.2069 47.9355C89.0572 47.8826 88.8938 47.7928 88.7166 47.6662C88.5393 47.535 88.3736 47.3923 88.2194 47.2381ZM86.9177 45.674L87.4874 46.2299L86.9315 46.7858C86.8003 46.917 86.7014 47.0459 86.6346 47.1725C86.5679 47.2991 86.531 47.4211 86.5241 47.5384C86.5149 47.6535 86.531 47.7617 86.5725 47.863C86.6162 47.962 86.6806 48.054 86.7658 48.1392C86.851 48.2244 86.9477 48.2819 87.0558 48.3118C87.1617 48.3395 87.2711 48.336 87.3838 48.3015C87.4943 48.2647 87.5991 48.1968 87.698 48.0978C87.8477 47.9482 87.9478 47.7882 87.9984 47.6179C88.0491 47.4475 88.0606 47.2887 88.0329 47.1414C88.0076 46.9918 87.957 46.8767 87.881 46.7961L88.5647 46.9549C88.6222 47.0861 88.6694 47.2346 88.7062 47.4003C88.7453 47.5638 88.7615 47.7387 88.7546 47.9251C88.7453 48.1093 88.7016 48.298 88.6234 48.4914C88.5428 48.6824 88.4093 48.8712 88.2228 49.0576C87.9858 49.2947 87.7234 49.4627 87.4356 49.5617C87.1479 49.6561 86.8636 49.6756 86.5828 49.6204C86.302 49.5606 86.0534 49.4224 85.837 49.2061C85.6414 49.0104 85.5044 48.7998 85.4262 48.5742C85.3479 48.3487 85.3284 48.1127 85.3675 47.8664C85.4066 47.6156 85.5079 47.3555 85.6713 47.0861C85.8324 46.8145 86.0557 46.536 86.3411 46.2506L86.9177 45.674ZM89.2773 40.3935L89.9816 41.0978L87.8064 43.273L87.1021 42.5687L89.2773 40.3935ZM86.7189 41.1082L87.7132 40.1138L91.2453 43.6459C91.3535 43.7541 91.4502 43.8231 91.5353 43.8531C91.6228 43.8807 91.7068 43.8772 91.7874 43.8427C91.8656 43.8059 91.9485 43.7437 92.036 43.6563C92.0981 43.5941 92.1511 43.5366 92.1948 43.4836C92.2385 43.4261 92.2742 43.3766 92.3018 43.3352L93.0372 44.0637C92.9797 44.1765 92.9095 44.2904 92.8266 44.4055C92.7438 44.5206 92.6425 44.638 92.5228 44.7577C92.3041 44.9763 92.0774 45.1317 91.8426 45.2238C91.6078 45.3112 91.3662 45.3181 91.1176 45.2445C90.869 45.1708 90.6135 45.0028 90.3511 44.7404L86.7189 41.1082Z" fill="white"/>
</svg>
