<svg width="27" height="7" viewBox="0 0 27 7" fill="none" xmlns="http://www.w3.org/2000/svg">
<path d="M23.2399 6.65508H22.5228C22.4648 6.63926 22.4121 6.61289 22.354 6.60234C20.8458 6.37031 19.654 5.11523 19.5539 3.64397C19.4378 1.99866 20.3765 0.606472 21.9058 0.152957C22.1062 0.0949489 22.3171 0.0527609 22.5227 2.65539e-05H23.2399C23.2874 0.0158469 23.3296 0.0422145 23.3823 0.047488C24.7745 0.274246 25.8345 1.2762 26.1351 2.64729C26.1561 2.75276 26.1878 2.85823 26.2142 2.9637V3.68089C26.1983 3.72835 26.172 3.77581 26.1667 3.82327C25.9452 5.19436 24.9696 6.23848 23.6143 6.55491C23.4825 6.58655 23.3612 6.62344 23.2399 6.65508ZM2.96892 0L3.68616 2.65539e-05C3.74417 0.0158469 3.7969 0.0422145 3.85491 0.047488C5.37366 0.284793 6.56018 1.54514 6.65511 3.03225C6.76057 4.67229 5.81135 6.05921 4.27678 6.50745C4.08164 6.56546 3.88128 6.60764 3.68613 6.6551H2.96895C2.92148 6.63928 2.8793 6.61292 2.83184 6.60237C1.46074 6.34925 0.564258 5.55296 0.137109 4.22405C0.0791016 4.05003 0.0474609 3.86546 0 3.68616V2.96897C0.0158203 2.92151 0.0421875 2.87405 0.047461 2.82659C0.274219 1.45022 1.24453 0.411355 2.5998 0.0949486C2.72637 0.0632816 2.84766 0.0316406 2.96892 0ZM12.7459 2.65539e-05H13.4631C13.5211 0.0158469 13.5738 0.0422141 13.6318 0.0527609C15.1453 0.290066 16.3635 1.59788 16.4268 3.07444C16.5006 4.73557 15.4986 6.14358 13.9535 6.53909C13.79 6.58128 13.6266 6.61819 13.4631 6.6551H12.7459C12.6879 6.63928 12.6352 6.61292 12.5771 6.60237C11.0637 6.37034 9.84548 5.05725 9.77695 3.58069C9.69785 1.91956 10.7051 0.51155 12.2502 0.116042C12.4189 0.0738545 12.5824 0.0369406 12.7459 2.65539e-05Z" fill="#1D3E60"/>
</svg>
